<svg xmlns="http://www.w3.org/2000/svg" version="1.1" xmlns:xlink="http://www.w3.org/1999/xlink" width="200" height="200"><svg xmlns="http://www.w3.org/2000/svg" version="1.1" xmlns:xlink="http://www.w3.org/1999/xlink" viewBox="0 0 200 200"><rect width="200" height="200" fill="url('#gradient')"></rect><defs><linearGradient id="SvgjsLinearGradient1001" gradientTransform="rotate(273 0.5 0.5)"><stop offset="0%" stop-color="#8ee3eb"></stop><stop offset="100%" stop-color="#f1f8e7"></stop></linearGradient></defs><g><g fill="#1d4c4f" transform="matrix(1.7910360743349933,0,0,1.7910360743349933,26.079526504690705,113.25601039832263)" stroke="#1b5f6f" stroke-width="0.2"><path d="M5.75 0L1.07 0L1.07-14.22L5.65-14.22Q7.54-14.22 9.04-13.36Q10.55-12.51 11.39-10.95Q12.24-9.39 12.25-7.46L12.25-7.46L12.25-6.81Q12.25-4.85 11.42-3.31Q10.60-1.76 9.10-0.88Q7.60-0.01 5.75 0L5.75 0ZM5.65-11.57L4.50-11.57L4.50-2.64L5.69-2.64Q7.17-2.64 7.96-3.69Q8.75-4.74 8.75-6.81L8.75-6.81L8.75-7.42Q8.75-9.48 7.96-10.53Q7.17-11.57 5.65-11.57L5.65-11.57ZM18.96 0.20L18.96 0.20Q16.53 0.20 15.03-1.25Q13.53-2.71 13.53-5.03L13.53-5.03L13.53-5.30Q13.53-6.92 14.13-8.16Q14.73-9.40 15.88-10.08Q17.03-10.76 18.61-10.76L18.61-10.76Q20.84-10.76 22.13-9.38Q23.42-8.00 23.42-5.53L23.42-5.53L23.42-4.25L16.88-4.25Q17.05-3.36 17.65-2.85Q18.24-2.34 19.19-2.34L19.19-2.34Q20.75-2.34 21.63-3.44L21.63-3.44L23.13-1.66Q22.52-0.81 21.39-0.31Q20.26 0.20 18.96 0.20ZM18.59-8.22L18.59-8.22Q17.15-8.22 16.88-6.31L16.88-6.31L20.20-6.31L20.20-6.56Q20.21-7.35 19.79-7.79Q19.38-8.22 18.59-8.22ZM27.19-10.57L28.83-3.92L30.50-10.57L33.96-10.57L30.52 0L27.16 0L23.71-10.57L27.19-10.57ZM35.35-3.19L35.35-3.19Q36.13-3.19 36.65-2.73Q37.17-2.27 37.17-1.54Q37.17-0.82 36.65-0.36Q36.13 0.11 35.35 0.11L35.35 0.11Q34.56 0.11 34.05-0.36Q33.54-0.83 33.54-1.54Q33.54-2.26 34.05-2.72Q34.56-3.19 35.35-3.19ZM50.67-14.22L50.67-11.57L46.41-11.57L46.41 0L42.98 0L42.98-11.57L38.79-11.57L38.79-14.22L50.67-14.22ZM59.57 0L56.28 0Q56.10-0.32 55.97-0.95L55.97-0.95Q55.06 0.20 53.43 0.20L53.43 0.20Q51.93 0.20 50.89-0.71Q49.84-1.61 49.84-2.98L49.84-2.98Q49.84-4.70 51.11-5.58Q52.38-6.46 54.80-6.46L54.80-6.46L55.82-6.46L55.82-7.01Q55.82-8.47 54.56-8.47L54.56-8.47Q53.39-8.47 53.39-7.31L53.39-7.31L50.10-7.31Q50.10-8.85 51.40-9.80Q52.71-10.76 54.73-10.76Q56.75-10.76 57.92-9.78Q59.09-8.79 59.12-7.07L59.12-7.07L59.12-2.39Q59.14-0.94 59.57-0.17L59.57-0.17L59.57 0ZM54.22-2.15L54.22-2.15Q54.83-2.15 55.24-2.41Q55.64-2.68 55.82-3.01L55.82-3.01L55.82-4.70L54.86-4.70Q53.14-4.70 53.14-3.15L53.14-3.15Q53.14-2.71 53.45-2.43Q53.75-2.15 54.22-2.15ZM64.16-15L64.16-9.43Q65.21-10.76 66.86-10.76L66.86-10.76Q68.60-10.76 69.49-9.73Q70.38-8.69 70.40-6.67L70.40-6.67L70.40 0L67.10 0L67.10-6.59Q67.10-7.43 66.76-7.83Q66.42-8.22 65.60-8.22L65.60-8.22Q64.58-8.22 64.16-7.58L64.16-7.58L64.16 0L60.87 0L60.87-15L64.16-15ZM81.47 0L78.18 0Q78.01-0.32 77.87-0.95L77.87-0.95Q76.96 0.20 75.33 0.20L75.33 0.20Q73.84 0.20 72.79-0.71Q71.75-1.61 71.75-2.98L71.75-2.98Q71.75-4.70 73.02-5.58Q74.29-6.46 76.71-6.46L76.71-6.46L77.72-6.46L77.72-7.01Q77.72-8.47 76.46-8.47L76.46-8.47Q75.29-8.47 75.29-7.31L75.29-7.31L72.00-7.31Q72.00-8.85 73.31-9.80Q74.61-10.76 76.63-10.76Q78.65-10.76 79.82-9.78Q81.00-8.79 81.03-7.07L81.03-7.07L81.03-2.39Q81.04-0.94 81.47-0.17L81.47-0.17L81.47 0ZM76.12-2.15L76.12-2.15Q76.74-2.15 77.14-2.41Q77.55-2.68 77.72-3.01L77.72-3.01L77.72-4.70L76.77-4.70Q75.05-4.70 75.05-3.15L75.05-3.15Q75.05-2.71 75.35-2.43Q75.65-2.15 76.12-2.15Z"></path></g></g></svg><style>@media (prefers-color-scheme: light) { :root { filter: none; } }
@media (prefers-color-scheme: dark) { :root { filter: none; } }
</style></svg>